<?xml version="1.0" encoding="UTF-8" standalone="no"?>
<svg id="svg4136" xmlns:rdf="http://www.w3.org/1999/02/22-rdf-syntax-ns#" xmlns="http://www.w3.org/2000/svg" height="1879" viewBox="0 0 2072 1879" width="2072" version="1.1" xmlns:cc="http://creativecommons.org/ns#" xmlns:dc="http://purl.org/dc/elements/1.1/">
<path id="path4146" fill="#FFFFFF" d="m1014.5 1878.4c-194.16-15.021-337.99-156.66-354.59-349.18-3.0465-35.344-1.8541-40.249 13.722-56.447 19.351-20.123 19.618-19.682-22.201-36.608-546.03-221-797.99-840.37-561.9-1381.2 10.56-24.199 23.28-51.127 25.08-53.119 4.38-4.8408-12.18-20.953 324.47 315.7 174.67 174.67 318.22 317.99 319 318.48 7.4478 4.7137 15.807-6.6473 61.661-83.801 9.5055-15.994 13.115-19.839 19.47-20.743 12.961-1.8427 396.28-0.0338 399.45 1.885 3.5609 2.1552 2.5643 0.63513 29.236 44.59 34.94 57.581 36.79 59.963 44.265 56.99 2.2223-0.88383 98.754-96.596 287.85-285.41 365.8-365.21 350-349.57 353.1-349.57 4.4593 0 8.2785 7.1708 29.56 55.5 235.63 535.1-16.055 1158.3-556.69 1378.4-12.375 5.0387-25.317 10.314-28.759 11.723-15.36 6.2866-14.999 12.434 1.7529 29.871 29.738 30.955 2.3613 154.95-52.318 236.96-72.009 108-207.28 175.56-332.18 165.9zm68-64.332c39.218-6.0966 77.319-19.746 112.14-40.174 22.746-13.344 26.33-17.826 21.539-26.934-2.9186-5.5483-27.509-49.761-39.19-70.461-5.8967-10.45-21.17-37.9-33.941-61-23.951-43.322-25.967-46.949-45.309-81.5-6.3117-11.275-20.333-36.475-31.159-56-29.347-52.93-24.551-53.274-55.748 4-11.534 21.175-26.067 47.725-32.296 59-6.2287 11.275-15.353 27.925-20.277 37-10.557 19.457-39.294 71.983-55.257 101-14.673 26.671-34.393 62.809-38.646 70.823-7.0646 13.31-4.385 16.607 26.383 32.458 36.791 18.954 73.931 29.986 114.76 34.086 12.975 1.3031 63.543-0.2061 77-2.298zm-260.11-91.3c1.7542-1.7875 7.7437-11.575 13.31-21.75s18.98-34.7 29.808-54.5 23.639-43.2 28.47-52c4.8305-8.8 15.422-28.15 23.538-43 14.279-26.128 32.807-59.892 51.036-93 4.8451-8.8 11.128-20.275 13.962-25.5 2.8337-5.225 8.2216-15.125 11.973-22 18.99-34.803 20.322-24.592-10.432-80-25.187-45.378-26.487-47.1-34.338-45.48-4.8352 0.9979-225 221.05-227.37 227.26-9.7835 25.58 17.064 113.07 50.086 163.22 25.102 38.122 42.476 54.378 49.962 46.75zm442.77-6.5053c34.606-22.698 79.399-123.47 83.482-187.8 1.0502-16.548 11.658-4.4051-111.99-128.19-131.35-131.5-115.65-120.31-130.71-93.173-4.708 8.4839-14.824 26.675-22.479 40.425-19.518 35.055-24.6 17.066 35.034 124 9.2016 16.5 19.325 34.725 22.496 40.5 40.103 73.026 112.65 202.01 114.6 203.75 3.0231 2.6971 5.9796 2.85 9.5705 0.4947zm-510.7-326.2c4.736-2.2213 103.87-101.13 105.33-105.08 2.3259-6.3313 0.21773-7.6745-26.143-16.658-84.212-28.698-162.83-76.761-225.82-138.06-21.038-20.473-9.3268-20.954-102.36 4.2009-25.607 6.9233-47.386 12.763-85.712 22.983-48.957 13.055-48.428 12.287-23.788 34.514 91.739 82.754 204.36 149.25 323 190.71 28.701 10.03 29.519 10.2 35.5 7.3949zm590.03-4.4898c110.99-37.5 215.45-96.067 305.97-171.54 32.094-26.76 42.228-37.012 41.085-41.566-1.0682-4.256-2.1348-4.6213-52.585-18.006-9.625-2.5535-28.3-7.5634-41.5-11.133s-39.75-10.696-59-15.838c-19.25-5.1411-38.366-10.283-42.48-11.427-14.216-3.9513-15.77-3.3881-30.875 11.189-68.782 66.376-143.75 112.26-233.05 142.63-31.249 10.628-33.661 4.9012 28.205 66.952 64.099 64.29 54.554 58.767 84.233 48.739zm-301.22-66.44c1.299-1.4866 25.246-44.45 39.658-71.15 11.309-20.953 19.4-35.815 28.034-51.5 4.8444-8.8 18.132-33.1 29.527-54 11.396-20.9 21.058-38.45 21.473-39 0.4146-0.55 6.9502-12.475 14.523-26.5 7.5732-14.025 17.909-32.925 22.968-42 5.0594-9.075 11.589-21 14.51-26.5 2.9211-5.5 10.252-19 16.291-30 21.556-39.264 39.108-71.23 47.222-86 21.685-39.477 20.77-41.698-11.019-26.721-8.8 4.1461-20.275 9.4414-25.5 11.767-14.409 6.4142-38.615 17.529-105.5 48.443-10.45 4.83-30.025 13.848-43.5 20.04-13.475 6.1922-30.35 13.957-37.5 17.255-18.757 8.6515-18.515 8.6711-45-3.6492-11.55-5.3729-25.275-11.718-30.5-14.1-5.225-2.3819-21.65-9.9429-36.5-16.802-32.278-14.909-58.006-26.729-73-33.538-6.05-2.7471-18.425-8.4394-27.5-12.65-75.997-35.258-73.336-38.264-31.949 36.1 15.566 27.969 32.883 59.178 38.482 69.353 5.5991 10.175 11.768 21.2 13.709 24.5 3.5192 5.9838 25.978 46.373 34.754 62.5 2.544 4.675 12.407 22.45 21.918 39.5 9.5108 17.05 18.887 33.925 20.836 37.5 1.9488 3.575 8.1483 14.6 13.777 24.5 5.6284 9.9 14.06 24.975 18.737 33.5 20.371 37.133 55.845 100.88 58.423 104.98 4.2145 6.7116 9.0186 8.2981 12.626 4.1697zm-123.35-93.1c4.3557-2.7555 1.5348-8.2267-72.466-140.55-6.7667-12.1-20.063-35.95-29.548-53-16.005-28.771-20.916-37.65-37.891-68.5-3.4801-6.325-8.1099-14.65-10.289-18.5-3.5077-6.1989-18.083-32.295-40.213-72-3.9851-7.15-11.925-21.514-17.645-31.92-10.572-19.234-14.293-24.106-23.001-30.114-8.0283-5.5394-9.4792-2.0128 23.015-55.94 26.991-44.795 26.866-44.486 21.189-52.125-5.8239-7.8378-210.53-211.27-213.26-211.93-6.8152-1.6478-10.328 5.5555-20.882 42.818-83.502 294.82 93.737 608.1 388.54 686.77 10.45 2.7886 19.45 5.2296 20 5.4245 2.1178 0.7505 11.07 0.4372 12.45-0.4357zm266.16-5.9742c302.8-86 473.9-404.08 379.2-705.1-6.7378-21.419-9.0498-25.006-15.164-23.528-2.9428 0.71146-211.22 208.02-213.72 212.73-3.5661 6.7149-3.7278 6.3679 25.046 53.739 31.856 52.446 30.506 48.052 17.456 56.831-6.258 4.2096-11.912 13.816-53.695 91.23-5.195 9.625-12.496 22.9-16.225 29.5-3.7286 6.6-11.268 20.325-16.756 30.5-5.487 10.175-16.62 30.65-24.739 45.5-8.1194 14.85-18.814 34.425-23.765 43.5-4.9515 9.075-15.307 27.975-23.011 42-63.676 115.91-64.892 118.18-65.493 122.4-1.1767 8.2579 3.7688 8.3662 30.855 0.6756zm-842.3-118.5c9.1838-2.4513 25.698-6.9155 36.698-9.9203 11-3.0049 31.475-8.4627 45.5-12.129 14.025-3.6659 27.525-7.2965 30-8.0681s17.386-4.7801 33.135-8.9079c49.399-12.947 47.855-11.357 32.931-33.904-36.536-55.199-60.093-105.37-79.955-170.3-3.9139-12.794-6.2124-15.1-18.232-18.297-4.6089-1.2257-20.53-5.5263-35.38-9.5568s-36.675-9.9036-48.5-13.051c-11.825-3.1476-27.8-7.4172-35.5-9.4878-7.7-2.0707-26.15-6.975-41-10.898-14.85-3.9235-34.2-9.1107-43-11.527-21.832-5.995-69.787-18.879-81.975-22.025-20.248-5.2256-21.013-3.0803-10.172 28.539 30.31 88.407 77.32 177.05 135.21 254.95 16.239 21.852 45.28 57.859 46.79 58.015 0.0802 0.01 1.8756 0.6172 3.9897 1.3533 4.6368 1.6144 6.8041 1.2624 29.458-4.7845zm1416.6 3.8779c5.8424-3.8281 40.482-47.171 60.985-76.309 53.302-75.749 92.888-152.84 123.22-239.97 12.098-34.749 16.804-33.964-67.124-11.193-23.263 6.3119-75.519 20.299-183 48.983-67.995 18.146-61.455 14.69-68.099 35.991-5.9944 19.219-17.216 50.073-22.742 62.531-12.151 27.393-17.323 38.102-26.208 54.268-10.538 19.176-20.857 36.078-31.656 51.857-13.625 19.907-20.64 16.519 100.21 48.389 12.375 3.2637 40.725 10.876 63 16.915 42.438 11.507 45.98 12.094 51.418 8.5318zm-748.87-203.92 2.4545-2.4545v-65.73c0-77.478 1.6784-68.359-15.752-85.574-16.699-16.494-18.587-16.59-22.91-1.1642-8.772 31.302-32.76 49.54-63.303 48.13-68.718-3.1722-81.08-99.727-15.39-120.21 22.25-6.9377 22.507-5.7034-7.4658-35.868-27.405-27.58-29.65-29.035-35.388-22.925-2.2764 2.4233-23.593 37.225-60.794 99.25-6.4324 10.725-16.979 28.261-23.437 38.968-20.899 34.651-21.194 32.474 6.0667 44.755 8.7303 3.9331 22.398 10.166 30.373 13.851 14.005 6.4715 36.85 17.004 117.5 54.176 20.9 9.6328 42.725 19.649 48.5 22.259 5.775 2.6094 14.1 6.4348 18.5 8.5009 15.579 7.3152 17.414 7.667 21.046 4.0354zm101.17-18.439c71.836-33.141 115.69-53.323 132.78-61.115 28.121-12.815 54.565-24.926 62.17-28.473 15.229-7.1029 15.351-6.6666-16.186-58.019-7.6222-12.411-27.972-46.146-62.656-103.86-12.557-20.897-11.763-21.054-41.013 8.1203-28.428 28.355-28.509 28.59-12.053 34.708 45.164 16.791 57.919 69.219 24.833 102.07-33.32 33.085-87.716 20.011-102.09-24.537-4.8393-14.998-7.5476-15.162-21.646-1.3102-15.292 15.024-13.947 6.8847-13.629 82.517 0.345 81.933-6.0253 75.51 49.486 49.9zm-695.01-123.93c3.0937-1.9671 3.3843-6.2587 1.6317-24.096-7.999-81.412 5.9389-183.78 35.885-263.57 6.4739-17.249 7.4033-20.936 6.3619-25.243-0.8879-3.6721-310.5-313.82-315.41-315.96-6.0183-2.6152-7.9701-0.43617-13.692 15.287-28.24 77.57-46.874 161.34-53.929 242.37-7.6729 88.122-2.2128 194.15 13.938 270.66 3.7839 17.925 3.4521 17.694 38.021 26.42 12.236 3.0884 30.464 7.9561 82 21.898 34.105 9.2261 51.903 13.991 78.5 21.017 10.725 2.833 25.8 6.9027 33.5 9.0438s23.675 6.4517 35.5 9.5791 27.575 7.3637 35 9.4139c13.308 3.6746 20.36 4.6647 22.687 3.185zm1266.6-5.756c13.336-3.5979 29.873-8.0613 36.748-9.9186 13.422-3.626 25.341-6.8172 73-19.546 16.775-4.4802 44.45-11.904 61.5-16.497s43.825-11.777 59.5-15.965c69.849-18.661 62.696-11.602 70.964-70.032 5.0196-35.475 6.0434-44.496 9.0795-80 10.029-117.28-8.5777-258.51-50.008-379.56-10.9-31.849-12.48-34.335-19.723-31.035-3.0742 1.4007-312.57 309.29-315.35 313.71-2.5908 4.1188-2.4755 6.9842 0.6294 15.651 35.389 98.778 47.937 184.03 40.056 272.15-2.8609 31.987-4.0946 31.214 33.605 21.043zm-639.7-40.35c6.8682-5.1058 110.27-109.49 111.35-112.42 1.4164-3.812-0.1306-6.4463-4.2164-7.1796-8.9573-1.6078-228.65-0.0241-230.33 1.6605-3.6724 3.6728-1.7902 5.8242 54.405 62.189 64.348 64.542 60.812 61.677 68.789 55.747z"/>
</svg>
